HIERARCHY
ROOT root
{
	OFFSET	0	13.1	24.9
	CHANNELS 6  Xposition Yposition Zposition Xrotation Yrotation Zrotation
	JOINT spine_1
	{
		OFFSET	0	9.99999	0
		CHANNELS 3  Xrotation Yrotation Zrotation
		JOINT spine_2
		{
			OFFSET	0	112	-10
			CHANNELS 3  Xrotation Yrotation Zrotation
			JOINT spine_3
			{
				OFFSET	0	206.5	19.3
				CHANNELS 3  Xrotation Yrotation Zrotation
				JOINT spine_4
				{
					OFFSET	0	110.4	14.6
					CHANNELS 3  Xrotation Yrotation Zrotation
					JOINT neck_1
					{
						OFFSET	0	71.8	-50.3
						CHANNELS 3  Xrotation Yrotation Zrotation
						JOINT neck_2
						{
							OFFSET	0	86.2	-25.8
							CHANNELS 3  Xrotation Yrotation Zrotation
							JOINT head_ee
							{
								OFFSET	0	179.8	-8.7
								CHANNELS 3  Xrotation Yrotation Zrotation
								End Site
								{
									OFFSET	1	0	0
								}
							}
						}
					}
					JOINT left_clavicle
					{
						OFFSET	-43.2	22.4	-70.8
						CHANNELS 3  Xrotation Yrotation Zrotation
						JOINT left_shoulder
						{
							OFFSET	-93.9	-5.79999	48.7
							CHANNELS 3  Xrotation Yrotation Zrotation
							JOINT left_elbow
							{
								OFFSET	-291.4	-30.8	15.2
								CHANNELS 3  Xrotation Yrotation Zrotation
								JOINT left_lowarm_twist
								{
									OFFSET	-110.7	-3.89999	13.6
									CHANNELS 3  Xrotation Yrotation Zrotation
									JOINT left_hand
									{
										OFFSET	-110.7	-3.89999	13.6
										CHANNELS 3  Xrotation Yrotation Zrotation
										JOINT left_ee
										{
											OFFSET	-80.8	-5.10001	12.1
											CHANNELS 3  Xrotation Yrotation Zrotation
											End Site
											{
												OFFSET	1	0	0
											}
										}
									}
								}
							}
						}
					}
					JOINT right_clavicle
					{
						OFFSET	43.2	22.4	-70.8
						CHANNELS 3  Xrotation Yrotation Zrotation
						JOINT right_shoulder
						{
							OFFSET	93.9	-5.79999	48.7
							CHANNELS 3  Xrotation Yrotation Zrotation
							JOINT right_elbow
							{
								OFFSET	291.4	-30.8	15.2
								CHANNELS 3  Xrotation Yrotation Zrotation
								JOINT right_lowarm_twist
								{
									OFFSET	110.7	-3.89999	13.6
									CHANNELS 3  Xrotation Yrotation Zrotation
									JOINT right_hand
									{
										OFFSET	110.7	-3.89999	13.6
										CHANNELS 3  Xrotation Yrotation Zrotation
										JOINT right_ee
										{
											OFFSET	80.8	-5.10001	12.1
											CHANNELS 3  Xrotation Yrotation Zrotation
											End Site
											{
												OFFSET	1	0	0
											}
										}
									}
								}
							}
						}
					}
				}
			}
		}
	}
	JOINT left_hip
	{
		OFFSET	-82.8	-127.5	0.300001
		CHANNELS 3  Xrotation Yrotation Zrotation
		JOINT left_knee
		{
			OFFSET	-28.2	-396.7	2.2
			CHANNELS 3  Xrotation Yrotation Zrotation
			JOINT left_ankle
			{
				OFFSET	-11.7	-411.3	35.4
				CHANNELS 3  Xrotation Yrotation Zrotation
				JOINT left_toes
				{
					OFFSET	0	-60	-88.6
					CHANNELS 3  Xrotation Yrotation Zrotation
					JOINT left_foot_ee
					{
						OFFSET	-22.5	-16.5	-42.2
						CHANNELS 3  Xrotation Yrotation Zrotation
						End Site
						{
							OFFSET	1	0	0
						}
					}
				}
			}
		}
	}
	JOINT right_hip
	{
		OFFSET	82.8	-127.5	0.300001
		CHANNELS 3  Xrotation Yrotation Zrotation
		JOINT right_knee
		{
			OFFSET	28.2	-396.7	2.2
			CHANNELS 3  Xrotation Yrotation Zrotation
			JOINT right_ankle
			{
				OFFSET	11.7	-411.3	35.4
				CHANNELS 3  Xrotation Yrotation Zrotation
				JOINT right_toes
				{
					OFFSET	0	-60	-88.6
					CHANNELS 3  Xrotation Yrotation Zrotation
					JOINT right_foot_ee
					{
						OFFSET	22.5	-16.5	-42.2
						CHANNELS 3  Xrotation Yrotation Zrotation
						End Site
						{
							OFFSET	1	0	0
						}
					}
				}
			}
		}
	}
}
MOTION
Frames: 6
Frame Time: 0.02
1568.83 662.893 -635.915 162.239 -64.1494 169.24 -3.10681 -0.373207 -2.70288 -3.10277 -0.200525 -2.72114 -3.08784 0.521206 -2.6783 -3.09783 0.0918413 -2.72696 -20.5348 4.08139 12.3991 -20.1057 1.68696 13.2224 -0.0 0.0 -0.0 7.93055 19.3611 14.26 4.00738 -32.8003 53.9075 3.89226 -62.5695 2.36569 -82.7417 -8.16851 5.23444 -4.41905 27.8694 -13.3025 -0.0 0.0 -0.0 6.85469 24.7379 -12.0362 -18.9359 18.0134 -66.6127 0.644473 17.7059 -0.100381 -38.2235 2.76424 -3.93017 -4.06411 -21.3825 15.4587 0.0 0.0 0.0 -10.896 27.2521 -4.58029 -27.5968 0.128584 4.19234 38.288 -14.5806 -4.99836 -16.2525 0.0 0.0 -0.0 0.0 -0.0 37.0182 36.7644 -18.5989 -4.2998 -0.153 -0.641998 -6.60345 -0.635276 -0.98902 -10.3191 0.0 0.0 0.0 0.0 0.0 
1582.66 668.639 -632.093 163.318 -64.2168 169.905 -3.07945 -0.27785 -2.59609 -3.07571 -0.112148 -2.60849 -3.06583 0.575969 -2.54662 -3.07484 0.166692 -2.60558 -19.2615 4.45778 10.8484 -18.9391 2.93595 11.8681 -0.0 0.0 -0.0 8.14503 20.3658 14.4823 2.58969 -31.994 54.2846 3.90389 -62.6392 2.37601 -84.8935 -8.43861 5.18719 -4.40561 27.5907 -13.4143 -0.0 0.0 -0.0 6.84286 25.8496 -11.8988 -17.0053 18.4699 -67.2935 0.562908 15.5812 -0.0770153 -38.64 2.8077 -3.96128 -4.01889 -22.945 14.1946 0.0 0.0 0.0 -11.2887 27.1125 -4.49317 -26.4999 0.162135 4.02734 39.2641 -13.991 -5.06875 -16.7583 0.0 0.0 -0.0 0.0 -0.0 36.1663 37.0202 -17.9942 -3.65898 -0.133263 -0.545632 -11.1362 -1.75858 -1.67494 -7.68079 0.0 0.0 0.0 0.0 0.0 
1598.26 675.526 -623.384 164.523 -64.9294 171.0 -2.87723 -0.380357 -2.47639 -2.87385 -0.222057 -2.49556 -2.85975 0.431279 -2.46804 -2.86825 0.0362129 -2.50515 -15.1642 5.92435 8.81808 -14.975 6.11954 10.2734 -0.0 0.0 -0.0 8.66556 20.6579 15.2521 1.16588 -30.5382 54.4603 3.44445 -59.6123 1.97355 -85.1519 -8.4709 5.18083 -4.51743 27.8494 -13.8714 -0.0 0.0 -0.0 6.99376 26.6883 -12.1422 -14.3181 19.6008 -68.0572 0.422204 11.8132 -0.0436799 -39.3628 2.88365 -4.01452 -3.73182 -22.7381 12.6098 0.0 0.0 0.0 -13.3351 27.7415 -3.91999 -20.9571 0.283034 3.18568 36.7705 -13.1451 -4.81417 -17.335 0.0 0.0 -0.0 0.0 -0.0 35.6239 37.1403 -17.8492 -4.23081 -0.150927 -0.631613 -17.8141 -0.896787 -2.70065 -5.80842 0.0 0.0 0.0 0.0 0.0 
1616.92 680.257 -617.538 165.224 -65.7391 171.676 -2.80239 -0.401622 -2.45136 -2.79908 -0.244871 -2.47193 -2.78419 0.399866 -2.45165 -2.79258 0.00778027 -2.48401 -15.1989 6.21838 8.29087 -15.0451 7.00211 9.87782 -0.0 0.0 -0.0 8.87039 21.0582 15.5142 -0.435255 -31.0869 53.7546 3.27833 -58.3633 1.83116 -85.2711 -8.48579 5.17784 -4.87365 28.6739 -15.3062 -0.0 0.0 -0.0 6.88523 24.6719 -12.1096 -13.8212 21.8974 -67.1623 0.385869 10.8216 -0.036549 -40.101 2.96191 -4.0679 -3.56755 -22.7136 11.6492 0.0 0.0 0.0 -14.0021 27.6552 -4.17736 -20.0741 0.294751 3.0507 37.7345 -13.9085 -4.92678 -17.5907 0.0 0.0 -0.0 0.0 -0.0 34.6652 37.2744 -17.4115 -3.47654 -0.127447 -0.518237 -19.8814 -2.1252 -3.00856 -2.24063 0.0 0.0 0.0 0.0 0.0 
1634.45 682.361 -609.011 164.943 -66.4331 171.653 -2.58648 -0.321373 -2.61169 -2.58269 -0.154592 -2.62683 -2.57115 0.517516 -2.58002 -2.58043 0.103703 -2.62933 -13.6843 7.45967 8.68939 -13.5255 8.86727 10.5372 -0.0 0.0 -0.0 8.47423 20.9476 14.9186 -2.17484 -31.0911 54.5251 3.08473 -56.7867 1.66773 -84.679 -8.41178 5.19236 -4.76688 28.333 -14.9458 -0.0 0.0 -0.0 6.68682 24.5872 -11.6835 -12.3968 23.5509 -67.7003 0.336107 9.4531 -0.0277899 -40.4875 3.00316 -4.09545 -3.40888 -22.8855 10.6105 0.0 0.0 0.0 -15.2441 28.0517 -4.52944 -18.7842 0.308125 2.85324 37.3018 -13.9013 -4.88609 -18.4692 0.0 0.0 -0.0 0.0 -0.0 33.6539 36.8426 -17.4243 -4.44527 -0.15733 -0.663903 -16.976 -1.95676 -2.56624 -0.182881 0.0 0.0 0.0 0.0 0.0 
1646.65 686.042 -600.386 165.47 -67.2928 171.911 -2.448 -0.398325 -2.60094 -2.44427 -0.232071 -2.62099 -2.4292 0.434584 -2.59513 -2.4386 0.0194251 -2.63117 -12.7059 7.49046 6.9005 -12.6309 9.87799 8.77516 -0.0 0.0 -0.0 8.75635 20.731 15.3831 -4.79021 -30.4057 52.8858 2.93422 -55.4617 1.54276 -83.9679 -8.32267 5.20877 -4.7598 28.2078 -14.9943 -0.0 0.0 -0.0 6.74753 24.7851 -11.7969 -11.2515 24.6614 -67.7177 0.317847 8.94807 -0.0248702 -40.768 3.03321 -4.11527 -3.33074 -22.8999 10.1426 0.0 0.0 0.0 -16.1123 28.3299 -4.50504 -17.0601 0.319053 2.58893 37.7187 -13.3753 -4.90978 -18.1412 0.0 0.0 -0.0 0.0 -0.0 34.0469 36.3635 -17.5842 -4.7894 -0.167353 -0.715766 -21.166 -2.3909 -3.20231 -0.475028 0.0 0.0 0.0 0.0 0.0 
